<?xml version="1.0" encoding="UTF-8" standalone="no"?>
<!-- Created with Inkscape (http://www.inkscape.org/) -->

<svg
   width="320.11978"
   height="216.43333"
   viewBox="0 0 84.698359 57.264654"
   version="1.1"
   id="svg5"
   inkscape:version="1.2 (1:1.2.1+202207142221+cd75a1ee6d)"
   sodipodi:docname="black_box.svg"
   xmlns:inkscape="http://www.inkscape.org/namespaces/inkscape"
   xmlns:sodipodi="http://sodipodi.sourceforge.net/DTD/sodipodi-0.dtd"
   xmlns="http://www.w3.org/2000/svg"
   xmlns:svg="http://www.w3.org/2000/svg">
  <sodipodi:namedview
     id="namedview7"
     pagecolor="#ffffff"
     bordercolor="#666666"
     borderopacity="1.0"
     inkscape:showpageshadow="2"
     inkscape:pageopacity="0.0"
     inkscape:pagecheckerboard="false"
     inkscape:deskcolor="#d1d1d1"
     inkscape:document-units="px"
     showgrid="false"
     showborder="true"
     shape-rendering="auto"
     inkscape:zoom="2.2164081"
     inkscape:cx="159.94347"
     inkscape:cy="107.38095"
     inkscape:window-width="1920"
     inkscape:window-height="1054"
     inkscape:window-x="0"
     inkscape:window-y="0"
     inkscape:window-maximized="1"
     inkscape:current-layer="layer1" />
  <defs
     id="defs2">
    <inkscape:path-effect
       effect="perspective-envelope"
       up_left_point="257.05395,145.99819"
       up_right_point="283.21227,119.48071"
       down_left_point="256.83474,161.91609"
       down_right_point="283.04105,135.7011"
       id="path-effect4465"
       is_visible="true"
       lpeversion="1"
       deform_type="perspective"
       horizontal_mirror="false"
       vertical_mirror="false"
       overflow_perspective="false" />
    <inkscape:path-effect
       effect="perspective-envelope"
       up_left_point="214.0607,128.9051"
       up_right_point="250.62811,138.10587"
       down_left_point="213.93484,158.92069"
       down_right_point="249.83893,169.64694"
       id="path-effect4334"
       is_visible="true"
       lpeversion="1"
       deform_type="perspective"
       horizontal_mirror="false"
       vertical_mirror="false"
       overflow_perspective="false" />
    <inkscape:perspective
       sodipodi:type="inkscape:persp3d"
       inkscape:vp_x="-144.48576 : 41.129494 : 0"
       inkscape:vp_y="0 : 465.48264 : 0"
       inkscape:vp_z="141.28503 : 138.70924 : 0"
       inkscape:persp3d-origin="235.755 : 61.755194 : 1"
       id="perspective237" />
  </defs>
  <g
     inkscape:label="Layer 1"
     inkscape:groupmode="layer"
     id="layer1"
     transform="translate(-203.09187,-93.599312)">
    <g
       id="g239"
       style="opacity:1;fill:#0055d4;stroke:#000000;stroke-width:3.21121;stroke-linecap:round;stroke-linejoin:round;stroke-dasharray:none;paint-order:markers stroke fill"
       transform="matrix(0.54379896,0,0,0.54379896,111.97046,55.671344)">
      <path
         d="m 239.81378,94.173424 44.55305,12.682526 v 37.76675 l -44.55305,-12.68253 z"
         style="fill:#e9e9ff;fill-rule:evenodd;stroke:#000000;stroke-width:3.21121;stroke-linejoin:round;stroke-dasharray:none"
         id="path21527" />
      <path
         d="m 210.45571,122.99626 v 37.76675 l 29.35807,-28.82284 V 94.173424 Z"
         style="fill:#353564;fill-rule:evenodd;stroke:#000000;stroke-width:3.21121;stroke-linejoin:round;stroke-dasharray:none"
         id="path21529" />
      <path
         d="m 210.45571,160.76301 44.55305,12.68253 29.35807,-28.82284 -44.55305,-12.68253 z"
         style="fill:#afafde;fill-rule:evenodd;stroke:#000000;stroke-width:3.21121;stroke-linejoin:round;stroke-dasharray:none"
         id="path21531" />
      <path
         d="m 210.45571,122.99626 44.55305,12.68253 29.35807,-28.82284 -44.55305,-12.682526 z"
         style="fill:#4d4d4d;fill-opacity:1;fill-rule:evenodd;stroke:#000000;stroke-width:3.21121;stroke-linejoin:round;stroke-dasharray:none"
         id="path21533" />
      <path
         d="m 255.00876,135.67879 v 37.76675 l 29.35807,-28.82284 v -37.76675 z"
         style="fill:#666666;fill-rule:evenodd;stroke:#000000;stroke-width:3.21121;stroke-linejoin:round;stroke-dasharray:none"
         id="path21535" />
      <path
         d="m 210.45571,122.99626 44.55305,12.68253 v 37.76675 l -44.55305,-12.68253 z"
         style="fill:#333333;fill-rule:evenodd;stroke:#000000;stroke-width:3.21121;stroke-linejoin:round;stroke-dasharray:none"
         id="path21537" />
    </g>
    <g
       aria-label="Black box"
       id="text4469"
       style="font-size:25.7732px;line-height:1.15;font-family:'Sketch Gothic School';-inkscape-font-specification:'Sketch Gothic School';letter-spacing:0px;word-spacing:0px;stroke-width:0.486546;paint-order:markers stroke fill;stop-color:#000000"
       transform="matrix(0.54379896,0,0,0.54379896,111.97046,55.671344)">
      <path
         d="m 206.46736,69.746305 q 0.25169,0 0.40271,0.654398 0.85575,1.15778 1.61082,2.61759 2.90704,-1.422056 4.83247,-2.969958 0.10068,0 0.35237,-0.151015 1.09486,0.188768 2.16455,1.107442 1.09486,1.32138 1.40947,2.768605 0.20135,1.006766 0.20135,1.409472 0,1.724086 -1.30879,3.52368 v 0.05034 q 0.25169,0 1.40947,1.359134 0.75507,1.29621 0.75507,2.567252 v 0.251691 q 0,2.240054 -2.51691,4.077401 -1.82476,0.956427 -4.02706,0.956427 0,0.100677 -0.50338,0.100677 -1.35914,0 -2.3659,-1.107442 -1.57307,-2.315561 -2.3659,-2.466576 0,-0.125846 -0.95643,-0.251691 h -0.70474 q -0.90609,0 -2.1142,1.862516 -0.30203,1.01935 -0.30203,1.560487 0,1.535317 2.06387,2.718267 0.95642,0.302029 1.96319,0.302029 h 0.60406 q 0.4908,0 1.25846,-0.302029 0,-0.490799 -1.00677,-0.704736 -0.50338,-0.226522 -0.50338,-0.855751 V 88.6735 q 0,-0.566305 0.85575,-0.855751 h 0.20135 q 1.03194,0 1.86252,1.308796 v 0.201353 q 0,0.27686 -0.15102,0.956427 0.10068,0.01259 0.10068,0.100677 v 0.05034 q -0.30203,1.031935 -0.30203,1.15778 0.0755,0 0.15101,0.151015 v 0.100677 q -0.66698,0.742489 -1.35913,0.855751 h -0.0503 q 0,-0.07551 -0.15101,-0.151015 -1.19554,0.151015 -1.35914,0.151015 -1.19553,-0.151015 -1.30879,-0.151015 -0.0881,0.05034 -0.25169,0.05034 -0.47822,-0.226522 -1.00677,-0.30203 0,-0.125845 -0.50338,-0.302029 -0.1636,0.100676 -0.30203,0.100676 h -0.10068 q -0.0755,0 -0.15101,-0.151015 v -0.05034 l 0.0503,-0.251691 q -1.3088,-0.755075 -1.3088,-3.171312 v -1.15778 q 0,-1.346549 1.3088,-2.869282 1.08227,-0.906089 1.76184,-0.956428 h 0.4027 q 1.37172,0 2.41624,0.805413 v -0.553721 h -0.0503 q -0.10068,0.05034 -0.15101,0.05034 0,-0.100676 -0.10068,-0.100676 l -0.30203,0.05034 q -0.23911,-0.666982 -0.75507,-2.869282 -0.54114,-1.560487 -0.85575,-3.825709 -0.20136,-0.402707 -0.55373,-1.812178 -0.7299,-0.591475 -2.46657,-1.208119 l -2.11421,-0.352368 q -0.1636,-0.06292 -0.35237,-1.308795 0,-0.239107 0.35237,-0.402707 l 0.70474,0.05034 q 2.07645,-0.553721 4.78213,-1.963193 0.55372,-0.30203 0.70474,-0.30203 z m 3.67469,3.271988 0.25169,-0.05034 h 0.60406 q 0.39013,-0.113261 3.12098,-2.114208 v -0.100676 q -0.13843,0 -0.30203,-0.100677 -0.0881,0 -1.9632,1.359134 -1.7115,0.943842 -1.7115,1.006765 z m -6.94668,-0.302029 q 0.45305,0.100676 0.50338,0.100676 l 2.3659,-2.114208 h -0.0503 q -0.83058,0.239107 -2.81894,2.013532 z m 0.85575,0.302029 0.25169,0.100677 q 1.08228,-0.729905 2.31556,-1.812178 -0.17618,-0.352368 -0.25169,-0.352368 -1.43464,1.233288 -2.31556,2.063869 z m 7.65142,0.05034 q 0.17618,0 0.90609,0.302029 0.90609,-0.553721 2.46657,-2.013531 h 0.0503 v -0.05034 q -0.12584,0 -0.50338,-0.30203 -0.1636,0 -2.91962,2.06387 z m 3.62436,-1.510149 q 0,0.201353 -1.76184,1.610825 -0.55372,0.390122 -0.55372,0.453045 0.10067,0 0.4027,0.302029 h 0.0503 q 1.39689,-0.981596 2.26522,-1.862516 -0.17618,-0.339783 -0.4027,-0.503383 z m -10.62138,1.711502 v 0.05034 q 0,0.08809 0.30203,0.201353 0.23911,-0.02517 2.01353,-1.610825 -0.12585,-0.251691 -0.20135,-0.251691 -1.19554,1.01935 -2.11421,1.610825 z m -2.46658,-0.906089 q 0,0.100676 0.45305,0.201353 0.0755,0 0.75507,-0.60406 h -0.0503 q -0.90609,0.402707 -1.15778,0.402707 z m 3.12098,1.45981 0.30203,0.201353 q 1.69891,-1.434641 1.7115,-1.560487 -0.0378,0 -0.15102,-0.151015 -0.3272,0.226523 -1.86251,1.510149 z m 8.35615,0.453044 q 0,0.07551 0.15102,0.151015 2.0387,-1.510148 2.21488,-1.510148 h 0.0503 q 0,-0.05034 -0.15102,-0.453045 h -0.0503 z m -13.2893,-1.510148 v 0.30203 q 0,0.302029 0.50338,0.302029 2.31556,0.327199 3.82571,1.308795 0.30203,0 0.6544,0.855751 v 0.05034 q 0,0.05034 -0.0503,0.05034 0.55372,1.623409 0.80541,3.523679 0.85575,3.032882 0.85575,3.120974 0,0.125845 0.25169,1.15778 h 0.0503 q 0.0755,0 0.20135,-0.201353 v -0.201353 q 0,-0.528552 -0.75507,-3.020297 l -0.55372,-3.070635 q -0.30203,-1.59824 -1.05711,-2.365899 -1.04452,-1.006766 -3.423,-1.510148 z m 5.48687,1.560487 0.15101,0.251691 q 0.42788,-0.226522 1.66117,-1.45981 -0.10068,-0.1636 -0.10068,-0.251692 -1.63599,1.333965 -1.7115,1.459811 z m 10.31935,-1.208119 q 0,0.125846 -2.21489,1.661163 0.15102,0.352368 0.15102,0.503383 h 0.0503 q 1.73667,-1.359134 1.91286,-1.359134 l 0.10068,0.151015 v 0.100677 q -0.2517,0.339783 -1.20812,0.956427 -0.66699,0.541137 -0.70474,0.654398 0.0503,0.264276 0.0503,0.503382 0.64181,-0.591474 2.06387,-1.560486 h 0.10067 l 0.15102,0.100676 v -0.05034 q -0.26428,-1.661163 -0.45304,-1.661163 z m -9.91665,1.812178 q 0.11327,0.30203 0.20136,0.30203 1.2207,-1.245873 1.40947,-1.510149 v -0.151015 h -0.0503 z m 2.3659,-1.208119 q 0.35237,0.503383 0.55372,4.882813 0.27686,0.05034 0.45305,0.05034 h 0.6544 v -0.05034 q -0.15102,-2.139377 -0.15102,-3.976724 v -0.251691 l -1.0571,0.201353 -0.10068,-0.151015 V 74.32709 q 0,-0.151015 1.15778,-0.352368 V 73.72303 h -0.10067 q -0.42788,0 -1.00677,0.201353 -0.0629,0 -0.35237,-0.201353 z m 2.21489,0 v 0.201353 q 0.0126,0.100677 0.10067,0.100677 h 0.50339 q 1.66116,0.415291 1.66116,1.661163 0.0503,0.188769 0.0503,0.402706 v 0.30203 q 0,0.817997 -0.25169,1.308795 0.65439,-0.604059 0.65439,-1.006765 v -0.402707 q 0,-1.547902 -1.25845,-2.214884 h -0.0503 l -0.15102,0.100677 h -0.0503 q -0.28945,-0.453045 -0.80542,-0.453045 z m -4.27876,1.912855 q 0.10068,0.163599 0.10068,0.251691 1.12003,-1.057104 1.40947,-1.510148 v -0.201353 q -0.42787,0.302029 -1.51015,1.45981 z m 4.27876,-1.157781 v 0.805413 q 0.15101,2.466576 0.15101,3.22165 h 0.0503 q 1.20812,-0.264276 1.20812,-0.503383 0.50338,-0.528552 0.50338,-1.510148 v -0.352368 q -0.11326,-1.510149 -0.80541,-1.510149 0,-0.08809 -0.70474,-0.251691 h -0.30203 q -0.10067,0.01258 -0.10067,0.100676 z m -4.0774,1.912855 v 0.151015 q 0.55372,-0.364953 1.45981,-1.409472 -0.0503,-0.08809 -0.0503,-0.201353 -0.0503,0 -1.40947,1.45981 z m 7.24871,1.107442 v 0.05034 q 0.0503,0 2.01353,-1.45981 h 0.10068 l 0.15101,0.201353 q -0.0629,0.213938 -2.56725,1.963193 0,0.100677 -0.25169,0.100677 h -0.0503 l -0.10068,-0.05034 q 0,0.03775 -0.85575,0.553721 l 0.25169,0.151015 h 0.10068 l 3.17131,-2.114208 h 0.10068 q 0,0.07551 0.15101,0.151015 0.40271,-1.094858 0.40271,-1.812178 v -0.201354 q -1.39689,0.868336 -2.3659,1.862517 0,0.239107 -0.25169,0.604059 z m -5.83924,-1.76184 v 0.100677 q 0.10068,0 0.10068,-0.100677 z m -0.40271,0.402707 q 0,0.06292 -0.85575,0.805412 v 0.05034 q 0.61665,-0.490798 0.90609,-0.85575 z m -0.75507,1.308795 q 0.0503,0.100676 0.0503,0.151015 h 0.0503 q 0.0629,0 0.90609,-0.906089 l 0.10068,-0.05034 0.25169,0.05034 q -0.0503,-0.01259 -0.0503,-0.503383 z m 0.10067,0.704736 v 0.302029 h 0.0503 q 0.36496,-0.289445 0.85575,-0.956427 h 0.15102 q 0.0755,0 0.15101,0.151015 0,0.251691 -1.0571,1.308795 l 0.0503,0.352368 q 0.99418,-0.906089 1.0571,-0.906089 v -0.503383 q 0,-0.113261 0.0503,-0.201353 -0.0503,-0.08809 -0.0503,-0.201353 v -0.503383 h -0.0503 q -1.19553,1.094858 -1.20812,1.157781 z m 5.99026,1.15778 q 0.0629,0 0.40271,0.453045 0.79282,-0.566306 1.35913,-0.906089 l -0.0503,-0.251692 q 0.17619,-0.352368 0.40271,-0.352368 0.10067,0.05034 0.15101,0.05034 0.22652,-0.01259 0.75508,-1.006766 h -0.0503 q -2.30298,1.497564 -2.96996,2.013531 z m -5.68823,0.453045 q 0.0503,0.27686 0.0503,0.402706 0.90609,-0.956427 0.90609,-1.258457 -0.0503,0 -0.95643,0.855751 z m 6.39297,0.251691 v 0.05034 q 0.35236,0.44046 0.35236,0.60406 1.10745,-0.943843 1.61083,-1.208119 v -0.100677 q -0.0377,0 -0.55372,-0.302029 z m -2.81895,-0.755074 0.0503,0.604059 v 0.05034 q 1.0571,0 2.01353,1.308795 0.35237,0.969012 0.35237,2.365899 v 0.100677 q 0,0.931258 -0.60406,2.567252 v 0.05034 h 0.0503 q 0,-0.13843 0.4027,-0.553721 l -0.0503,-0.251691 q 0.70473,-0.578891 0.70473,-2.114208 v -0.05034 q 0,-2.378484 -0.85575,-2.919621 -0.42787,-0.604059 -0.45304,-0.604059 -0.56631,-0.453045 -1.10744,-0.453045 -0.0503,-0.151014 -0.10068,-0.151014 -0.0378,0 -0.40271,0.05034 z m -1.86251,0.100676 v 0.704736 q 0.66698,-0.100676 1.15778,-0.100676 0,-0.05034 0.0503,-0.05034 l -0.0503,-0.100677 v -0.453045 l -0.25169,0.05034 h -0.80542 z m 5.18484,1.661164 q 0.0503,0.100676 0.0503,0.151015 h 0.0503 q 1.19553,-0.843167 1.81217,-1.409472 -0.10067,0 -0.10067,-0.100677 -0.10068,0 -1.81218,1.359134 z m 0.15101,0.604059 q 0.0503,0.07551 0.0503,0.30203 2.26522,-1.510149 2.26522,-1.560487 l -0.30203,-0.251691 z m -6.74533,-1.107442 h 0.0503 l 0.15102,-0.201353 v -0.05034 q -0.10068,0.02517 -0.20136,0.251691 z m 2.11421,-0.100677 -0.10067,-0.05034 q -0.6544,0.100677 -0.6544,0.151015 -0.17619,4.580783 -0.30203,4.580783 -0.1636,0.100677 -0.30203,0.100677 1.19553,1.963193 1.96319,1.963193 h 0.0503 q 0,-0.05034 -0.0503,-0.05034 l 0.0503,-0.453045 q 0,-1.346549 -0.10068,-2.768605 0.0503,-0.629229 0.0503,-0.654398 -0.0503,-2.013531 -0.10068,-2.91962 z m 1.25846,-0.100676 v 0.05034 q 0.10068,5.071582 0.10068,6.946683 0.10067,-0.100677 0.65439,-0.151015 0.55372,-0.364953 0.55372,-0.453045 -0.15101,0 -0.15101,-0.100676 0.75507,-1.862517 0.75507,-2.768606 V 83.63967 q 0,-2.240053 -0.60406,-2.61759 -0.70473,-0.704736 -1.30879,-0.704736 z m -3.32233,0.755074 q 0.0126,0.100677 0.10068,0.100677 0,-0.113262 0.50338,-0.60406 V 80.41802 q -0.0629,0 -0.60406,0.654398 z m 6.84601,1.308795 v 0.453045 h 0.0503 q 2.2023,-1.76184 2.51691,-1.76184 -0.18877,-0.30203 -0.25169,-0.30203 -2.06387,1.32138 -2.31556,1.610825 z m -6.69499,-0.755074 q 0.20135,0.666982 0.20135,0.755074 h 0.10068 q 0.10067,-0.71732 0.10067,-1.15778 -0.0629,0 -0.4027,0.402706 z m 9.31258,-0.201353 q -1.2207,0.74249 -2.61759,1.963193 v 0.453044 q 2.13938,-1.635994 2.26522,-1.661163 l -0.0503,-0.251691 q 0.28945,-0.239107 0.55372,-0.251692 -0.0629,-0.251691 -0.15101,-0.251691 z m -0.20135,1.107442 q 0.1636,-0.100676 0.30203,-0.100676 0.10067,0 0.10067,0.151014 h 0.0503 v -0.453044 q -0.45304,0.352368 -0.45304,0.402706 z m 0.4027,0.151015 q -0.0629,0.201353 -2.7686,2.164546 -0.37754,0.251691 -0.50339,0.654398 h 0.0503 l 3.0203,-2.164546 h 0.15101 l 0.10068,0.05034 v -0.704736 z m -2.81894,1.711501 q 2.01353,-1.45981 2.16454,-1.661163 h -0.0503 q -1.71151,1.258457 -2.11421,1.661163 z m -6.4433,-1.409471 v 0.100676 h 0.0503 v -0.100676 z m 4.88281,4.178077 0.90609,-0.201353 -0.15101,-0.201353 q 0.10067,-0.46563 0.25169,-0.503383 h 0.15101 q 0.10068,0 0.10068,0.201353 h 0.0503 l 2.51691,-1.661163 q 0.31462,-0.44046 0.55372,-1.107442 -3.57402,2.466575 -3.82571,2.768605 z m 1.86252,-0.654398 v 0.05034 h 0.0503 q 0.59147,-0.251691 1.00676,-0.704735 z m -7.45007,2.416238 q 0.21394,0.125845 1.00677,0.402706 0.35237,0.352368 0.35237,0.453044 0.10067,0 0.10067,-0.100676 v -0.352368 q -0.5663,-0.805413 -1.15778,-0.805413 -0.30203,0.100677 -0.30203,0.402707 z m -5.33585,0.352368 q 0.32719,1.711501 0.65439,1.711501 0.46563,-0.352368 0.60406,-0.352368 -1.09486,-0.994181 -1.20812,-1.359133 z m 5.73856,2.013531 0.0503,0.100676 v 0.100677 q -0.67957,0.654397 -0.85575,0.654397 v 0.05034 h 0.15101 q 2.01353,-1.031935 2.01353,-1.610825 -0.50338,0.478213 -1.35913,0.704736 z m -4.7318,0 v 0.05034 q 0.39012,0.201353 0.45305,0.201353 l 0.65439,-0.503383 q -0.15101,0 -0.50338,-0.201353 -0.55372,0.339784 -0.60406,0.453045 z m 1.35913,-0.05034 q 0,0.201354 -0.55372,0.453045 v 0.100676 q 0.35237,0.100677 0.40271,0.100677 0.79283,-0.503383 0.85575,-0.503383 v -0.100676 q -0.41529,-0.05034 -0.70474,-0.05034 z m 0.30203,0.805413 q 0.0126,0.100676 0.10068,0.100676 h 0.20135 q 0.26428,0 1.05711,-0.755074 h -0.40271 q -0.818,0.654398 -0.95643,0.654398 z m 1.81218,-0.654398 q 0,0.251692 -0.50338,0.553721 -0.18877,0.201353 -0.30203,0.201353 v 0.100677 h 0.40271 q 0.25169,0 1.25845,-0.855751 z m 1.61083,0.654398 v 0.05034 h 0.0503 q 0.55372,0 0.55372,-0.402706 -0.52856,0.352368 -0.60406,0.352368 z"
         id="path20421"
         style="stroke-width:0.486546" />
      <path
         d="m 224.18643,73.383246 0.15102,0.201353 v 0.151015 q -0.40271,0.390121 -0.40271,3.876047 0.0503,1.48498 0.0503,1.963193 -0.0503,2.151962 -0.0503,2.516914 0.13843,3.271988 0.35237,3.271988 0.50338,0.402707 1.45981,0.60406 l 0.10068,0.251691 q -0.26428,0.339783 -0.45305,0.855751 -0.37754,0.163599 -2.31556,2.214884 h -0.15101 q -0.15102,-0.327199 -0.6544,-0.503383 -0.51597,-0.415291 -1.91286,-1.761839 0.25169,-0.729906 0.25169,-3.171312 -0.10067,-1.799594 -0.10067,-2.013531 v -2.06387 q 0,-1.409472 -0.25169,-3.22165 0.33978,-1.170365 0.95642,-1.409471 2.66793,-1.76184 2.96996,-1.76184 z m -2.96996,2.969958 q 0.0503,0.08809 0.0503,0.201353 1.72409,-1.812178 1.9632,-1.812178 l 0.0503,0.100677 v 0.05034 q -1.23328,1.132611 -2.01353,2.06387 v 0.201353 h 0.0503 q 2.21488,-2.06387 2.21488,-2.114208 0.0503,-0.515967 0.0503,-0.805412 -1.03193,0.692151 -2.3659,2.114207 z m 0.50339,-0.956427 -0.50339,0.402706 v 0.201353 q 0.46563,-0.553721 0.60406,-0.553721 v -0.05034 z m -0.45305,2.164546 v 0.402706 q 1.28363,-1.333964 2.06387,-1.963193 0.10068,0.01258 0.10068,0.100677 v 0.05034 q -2.10162,2.000947 -2.11421,2.164546 v 0.05034 h 0.0503 q 0.93126,-1.145195 1.86252,-1.812178 h 0.0503 l 0.0503,0.100677 v 0.05034 q -1.68633,1.547902 -2.01353,2.013531 v 0.352368 q 1.83735,-2.164546 2.16455,-2.164546 v -1.359133 l 0.0503,-0.100677 h -0.0503 q -1.53532,1.359134 -2.21489,2.114208 z m -0.60406,-1.359134 q -0.15101,0.30203 -0.15101,0.402707 0.25169,2.227469 0.25169,2.466575 -0.0503,1.560487 -0.0503,2.06387 0.15102,3.649525 0.15102,3.876047 -0.10068,0.843167 -0.10068,1.208119 v 0.05034 h 0.0503 q 0.20135,-0.755074 0.20135,-0.956427 -0.15101,-2.579837 -0.25169,-8.758861 l -0.0503,-0.352368 z m 0.6544,3.271989 v 0.100676 l 2.11421,-2.315561 h -0.0503 q -1.5479,1.346549 -2.06387,2.214885 z m 0.0503,0.453044 h 0.0503 q 0.35237,-0.427875 2.01353,-2.164546 v -0.151015 q -1.29621,1.346549 -2.06387,2.315561 z m 0,0.352368 v 3.271988 h 0.10068 q 1.00676,-1.132611 1.7115,-1.76184 h 0.0503 q 0.10067,0.01259 0.10067,0.100677 v 0.05034 q -1.18295,1.107442 -1.91285,2.06387 0.0503,0.08809 0.0503,0.251691 h 0.0503 q 0,-0.125846 1.91286,-2.164546 v -0.906089 q -0.13843,0.01259 -1.76184,1.711502 h -0.10068 l -0.0503,-0.100677 v -0.05034 q 1.28363,-1.384303 1.9632,-1.912855 v -0.805412 l -1.7115,2.013531 q -0.10068,0 -0.10068,-0.100677 v -0.05034 q 0.57889,-0.780243 1.81218,-2.265223 v -0.151014 q -0.6544,0.57889 -1.91286,2.164546 h -0.0503 q -0.10067,0 -0.10067,-0.100677 0.50338,-0.729905 2.01353,-2.416237 h -0.0503 l -1.7115,1.862516 h -0.10068 q -0.10067,0 -0.10067,-0.100677 l 1.96319,-2.164546 h -0.0503 q -1.76184,1.799594 -1.76184,1.963193 h -0.20135 v -0.151015 q 0.0629,-0.13843 2.01353,-2.214884 v -0.201353 q -1.45981,1.45981 -2.06387,2.164546 z m 0.10068,4.429769 h 0.10067 q 0,-0.08809 1.40947,-1.661164 0.10068,0.01258 0.10068,0.100677 v 0.100677 q -1.56049,1.774424 -1.56049,1.912854 l -0.0503,0.251692 q 0.85575,-0.956428 1.86251,-1.963193 0.10068,0 0.10068,0.151015 l -1.81218,2.013531 q -0.20135,0.251691 -0.30203,0.654397 1.5479,-1.799593 2.16455,-2.265222 h 0.0503 v -0.05034 q 0,-0.503382 -0.0503,-1.510148 -1.93803,1.90027 -2.01353,2.265223 z m -0.15102,1.963193 v 0.05034 h 0.0503 q 1.34655,-1.547902 2.01353,-2.214884 h 0.0503 q 0.10067,0.01258 0.10067,0.100676 v 0.05034 q -1.20811,1.258457 -1.96319,2.214885 0.0126,0.100676 0.10068,0.100676 l 1.91285,-2.063869 v -0.100677 l -0.0503,-0.604059 q -1.76183,1.812178 -2.21488,2.466576 z m 0.55372,0.453044 v 0.05034 q 0.0881,0 0.85575,0.503383 1.3088,-0.981596 1.3088,-1.359133 0.0755,0 0.30203,-0.30203 0,-0.100677 -0.10068,-0.100677 l -1.51015,1.560487 h -0.0503 q -0.10067,0 -0.10067,-0.100677 l 1.40947,-1.610824 q 0,-0.100677 -0.10068,-0.100677 h -0.10067 q 0,0.113261 -1.35914,1.560487 h -0.0503 q -0.10067,0 -0.10067,-0.100677 l 1.45981,-1.711501 q -0.0503,-0.08809 -0.0503,-0.201354 h -0.0503 q -0.79283,0.792828 -1.76184,1.912855 z m 2.66793,-0.956427 q -0.0126,0.213937 -1.51015,1.610825 h -0.0503 q 0,0.07551 0.20136,0.151015 0.10067,-0.06292 1.20812,-1.359134 h 0.0503 q 0.10068,0.01259 0.10068,0.100677 l -0.10068,0.151014 v 0.05034 q 0.60406,-0.490799 0.60406,-0.553721 v -0.05034 q -0.15101,0 -0.50338,-0.100676 z m 0.30203,0.956427 v 0.05034 h 0.10068 l 0.30203,-0.302029 h -0.0503 q -0.26428,0.251691 -0.35237,0.251691 z m -4.17808,-0.201353 v 0.05034 q 1.66117,1.711502 2.21489,1.862517 0.10067,-0.327199 0.10067,-0.453045 -1.28362,-0.692151 -2.16454,-1.409472 -0.0503,0 -0.15102,-0.05034 z m 3.62436,0.704736 q -0.79283,0.906089 -1.10744,0.906089 0,0.07551 -0.10068,0.453044 1.19553,-1.308795 1.3088,-1.308795 v -0.05034 z"
         id="path20423"
         style="stroke-width:0.486546" />
      <path
         d="m 232.66843,75.799483 q 0.42788,0 0.6544,1.107442 0.75507,1.510149 1.61082,1.510149 h 0.35237 q 0.20136,0.100676 0.20136,0.302029 -0.20136,0.289446 -0.20136,0.704736 0,0.591475 0.0503,5.184843 0,0.478214 0.75508,0.604059 0.44046,-0.302029 0.65439,-0.302029 0.17619,0.03775 0.30203,0.302029 v 0.201354 q 0,0.201353 -0.15101,0.85575 v 0.30203 q -1.636,1.535318 -2.51692,2.114208 h -0.15101 q -0.96901,-0.855751 -1.10744,-0.855751 -0.40271,-0.30203 -0.90609,-0.855751 0,0.717321 -0.85575,0.956428 -0.10068,0 -1.51015,0.755074 -0.6544,0.251691 -0.80541,0.251691 -0.818,-0.616644 -1.3088,-1.610825 -0.90609,-1.824762 -0.90609,-2.61759 v -1.057104 q 0,-1.107442 0.0503,-2.667929 -0.0503,-0.201353 -0.0503,-0.352368 0.86834,-1.409472 1.56049,-1.409472 l 2.06387,-0.654397 q -0.25169,-0.327199 -0.25169,-0.503383 v -0.151015 q 1.86251,-1.76184 2.46657,-2.114208 z m -1.76184,2.265223 v 0.05034 q 0.30203,0.415291 0.60406,0.604059 l 1.40947,-1.006765 h 0.0503 q 0.10068,0.01258 0.10068,0.100676 v 0.100677 q -0.0252,0.113261 -1.3088,0.956427 v 0.05034 q 0,0.06292 0.25169,0.251691 h 0.0503 q 0.27686,-0.276861 1.3088,-1.057104 -0.0881,0 -0.40271,-0.654398 h -0.10067 q -1.25846,1.006766 -1.45981,1.006766 l -0.0503,-0.100677 v -0.100676 q 1.13261,-0.830582 1.40947,-1.107442 0,-0.1636 -0.20135,-0.503383 -0.26428,0.125846 -1.66117,1.409472 z m 1.51015,-1.157781 h 0.10068 q 0.10067,0.01259 0.10067,0.100677 -0.0629,0.125846 -1.40947,1.15778 h -0.10067 q -0.10068,0 -0.10068,-0.100676 0.6544,-0.679567 1.40947,-1.157781 z m -0.0503,2.315561 q 0.0126,0.100677 0.10068,0.100677 0.0377,-0.100677 1.20812,-0.805413 0,-0.07551 -0.15102,-0.151015 z m 1.45981,-0.553721 q -1.40947,1.006766 -1.40947,1.057104 v 0.402706 q 1.06969,-0.704736 1.76184,-1.308795 -0.25169,-0.151015 -0.35237,-0.151015 z m 0.60406,0.30203 q -1.79959,1.447225 -2.01353,1.45981 v 0.352368 h 0.10068 q 1.77442,-1.409472 1.96319,-1.409472 l 0.0503,0.100677 v 0.05034 q -1.81218,1.560487 -2.11421,1.560487 v 0.251691 q 0.61664,-0.13843 2.26522,-1.661163 v -0.654398 z m -6.4433,2.567252 h 0.0503 l 1.91286,-1.711501 h 0.10067 q 0.0755,0 0.15102,0.151014 -1.62341,1.409472 -2.21489,2.06387 v 0.151015 q 1.88769,-1.711502 2.06387,-1.711502 l 0.10068,0.151015 q -1.82476,1.610825 -2.16455,2.013531 v 0.100677 h 0.0503 q 0.91867,-0.918674 2.01353,-1.711502 0.10068,0.01258 0.10068,0.100677 v 0.100676 q -1.57307,1.308796 -1.66116,1.45981 h 0.0503 q 0.90609,-0.943842 1.56049,-1.15778 0.0126,0.100677 0.10068,0.100677 0,-0.415291 0.0503,-0.453045 l -0.0503,-0.100676 0.20135,-1.862517 q -0.28945,0.03775 -1.3088,1.057104 -1.10744,0.767659 -1.10744,1.258457 z m 3.12098,-2.315561 q 0.65439,0.893505 0.65439,1.107442 h 0.0503 v -0.503382 q -0.35237,-0.352368 -0.70473,-0.60406 z m -3.07064,1.258457 v 0.30203 q 0.44046,-0.339784 1.45981,-1.258457 h -0.0503 q -0.42787,0 -1.40947,0.956427 z m 2.91962,-0.906089 q -0.25169,3.133558 -0.25169,3.574018 v 1.107442 q 0,0.868335 0.80541,1.359134 v -0.05034 q -0.10067,-1.258457 -0.10067,-2.265222 v -0.30203 q 0.10067,-2.214884 0.10067,-2.416237 v -0.151015 q 0,-0.289445 -0.55372,-0.85575 z m -2.81894,0.402706 h 0.0503 q 0.10067,0 0.10067,-0.100676 h -0.0503 q -0.10067,0.01258 -0.10067,0.100676 z m 4.32909,1.661164 v 0.302029 q 0.37754,0 2.21488,-1.610825 v -0.201353 h -0.0503 q -1.86252,1.510149 -2.16455,1.510149 z m -5.3862,-0.956428 0.0503,0.100677 q -0.0503,2.328145 -0.0503,3.322326 0,1.447226 0.75508,2.768606 0.61664,1.359133 1.20812,1.661163 h 0.0503 q 0,-0.151015 0.10068,-0.352368 -0.86833,-0.717321 -1.61082,-2.416237 -0.20136,-0.490799 -0.20136,-1.208119 v -3.22165 q 0,-0.679567 0.10068,-1.107442 z m 5.43654,1.560487 q 0,-0.05034 -0.0503,-0.05034 v 0.402706 h 0.0503 l 2.16454,-1.560487 v -0.302029 q -1.8751,1.510148 -2.16454,1.510148 z m -0.75508,-1.057104 q -0.10067,1.434641 -0.10067,2.164546 0,0.276861 0.10067,2.265223 -0.0503,0 -0.0503,0.05034 l 0.2517,0.05034 h 0.15101 q -0.30203,-0.453044 -0.30203,-1.258457 v -1.006765 q 0,-0.755075 0.0503,-1.76184 -0.0503,-0.176184 -0.0503,-0.503383 z m 0.6544,1.812178 v 0.30203 q 0.22652,0 1.91286,-1.45981 l 0.15101,-0.100677 h 0.0503 q 0.10068,0.01259 0.10068,0.100677 v 0.05034 q -0.52856,0.528552 -2.01354,1.711502 h -0.0503 l -0.15102,-0.100677 v 0.553721 h 0.0503 q 0.40271,-0.314614 1.96319,-1.711501 h 0.0503 q 0.0755,0 0.15102,0.151014 -1.90027,1.812178 -2.11421,1.812178 h -0.10068 v 0.453045 h 0.0503 q 1.35913,-1.057104 1.81218,-1.610825 0,-0.08809 0.25169,-0.100677 0.10068,0.01258 0.10068,0.100677 v 0.05034 q -1.83735,1.812178 -2.11421,1.812178 0,-0.05034 -0.0503,-0.05034 v 0.151015 q 0.50338,0 1.86252,-1.45981 h 0.10067 q 0.10068,0.01258 0.10068,0.100676 v 0.100677 q -0.818,0.88092 -1.86252,1.610825 0.30203,0.692151 0.75508,1.15778 1.17036,-1.069688 1.40947,-1.409472 h 0.0503 v -0.05034 h -0.10068 q -0.80541,0.805413 -1.3088,1.107442 -0.0755,0 -0.15101,-0.151015 l 1.45981,-1.258456 q -0.0503,-0.06292 -0.0503,-0.352368 -1.42205,1.308795 -1.66116,1.308795 -0.10068,0 -0.10068,-0.100677 v -0.05034 q 1.04452,-0.830582 1.7115,-1.560487 h 0.0503 v -0.503382 q 0,-0.729906 -0.0503,-2.265223 -1.72408,1.32138 -2.26522,1.661163 z m -4.42977,0.60406 q 0.0503,0.100676 0.0503,0.151014 -0.0503,0.100677 -0.0503,0.151015 1.59824,-1.635994 1.9632,-1.661163 l 0.10067,0.151015 q -1.97578,1.585656 -2.06387,2.114208 1.3088,-1.384303 1.56049,-1.459811 h 0.10068 q 0.10067,0.01258 0.10067,0.100677 -1.14519,1.094858 -1.76184,1.76184 0.0503,0.100676 0.0503,0.151015 h 0.0503 l 1.56049,-1.359134 h 0.0503 q 0.10068,0.01259 0.10068,0.100677 v 0.05034 l -1.66116,1.560487 q 0,0.251691 0.10067,0.251691 l 1.71151,-1.45981 h 0.0503 l 0.10068,0.05034 v -1.359133 q 0,-0.352368 0.0503,-1.107443 -0.67957,0.239107 -2.16455,1.812179 z m 0.35237,2.365899 q 0.0755,0.201353 0.15102,0.201353 0,-0.125846 0.55372,-0.352368 0,-0.05034 1.00676,-0.906089 0.0755,0 0.15102,0.151015 -0.23911,0.364952 -1.40948,1.258457 l -0.20135,0.05034 q 0.11326,0.30203 0.20135,0.30203 l 1.25846,-1.157781 h 0.0503 q 0.10068,0.01259 0.10068,0.100677 v 0.100676 q -1.25846,1.208119 -1.25846,1.258457 0.10068,0.226522 0.20135,0.251692 0.70474,-0.692152 1.40947,-1.258457 0.0755,0 0.15102,0.151014 l -1.40947,1.359134 q 0.12584,0.100677 0.20135,0.100677 0.71732,-0.415291 1.91286,-1.258457 v -0.100677 q -0.50339,0 -1.20812,-1.208119 -0.10068,-0.465629 -0.10068,-0.553721 -0.44046,0.289445 -1.76184,1.510149 z m 5.23518,0.906089 q 0.0881,0 0.25169,0.151015 0,-0.1636 0.70474,-0.704736 l 0.70473,-0.755075 q 0,-0.07551 -0.15101,-0.151014 -1.51015,1.422056 -1.51015,1.45981 z m 1.91286,-1.157781 q -1.27105,1.359134 -1.51015,1.359134 v 0.100676 q 0.15101,0 0.4027,0.201353 0.0755,0 0.35237,-0.352367 -0.1636,0.100676 -0.30203,0.100676 h -0.0503 q -0.10067,0 -0.10067,-0.100676 l 1.20812,-0.956428 q 0.22652,0 0.35236,-0.251691 z m 1.15778,0.100677 q -1.43464,1.698917 -2.01353,2.114208 v 0.201353 h 0.0503 q 0.89351,-0.704736 1.9632,-1.661164 v -0.402706 q 0,-0.113261 0.0503,-0.201353 v -0.05034 z m -4.3291,0.503383 v 0.302029 q 0.52856,0.717321 1.76184,1.560487 0,0.07551 0.20136,0.151015 l 0.0503,-0.251692 v -0.100676 q -1.23329,-0.427876 -1.86252,-1.661163 z m -2.96995,2.265222 1.91285,-0.906089 q 0.75507,-0.188768 0.75507,-1.057104 h -0.0503 q -1.72409,1.371718 -2.51692,1.610825 -0.10067,0.314614 -0.10067,0.352368 z"
         id="path20425"
         style="stroke-width:0.486546" />
      <path
         d="m 243.25205,76.793664 q 0.35237,0 0.35237,0.755074 0.39012,0.956428 1.25846,0.956428 0.41529,-0.251692 0.75507,-0.30203 0,-0.07551 0.20136,-0.201353 0.27686,0 0.35236,0.201353 v 0.251691 q -1.58565,2.667929 -2.36589,2.667929 -0.26428,0.05034 -0.50339,0.05034 -0.59147,-0.07551 -1.0571,-0.503383 v -0.100677 h -0.0503 v 0.151015 q 0,0.427875 -0.0503,2.315561 0.1636,2.315561 0.95643,2.315561 h 0.30203 q 0.31461,0 1.15778,-1.006766 h 0.15101 q 0.0629,0 0.2517,0.251692 v 0.151014 q -0.50339,0.629229 -0.50339,0.805413 -0.21393,1.006765 -0.55372,1.006765 -0.5663,0.817997 -2.06387,2.013532 -0.11326,0.251691 -0.45304,0.503382 h -0.0503 l -1.56049,-1.15778 q -1.40947,-1.447226 -1.56048,-2.063869 0,-1.774425 0.65439,-6.090932 0.46563,-0.704736 1.10745,-0.956428 3.07063,-2.013531 3.27198,-2.013531 z m -3.47334,2.818944 0.0503,0.251691 v 0.05034 l -0.10068,0.151014 h 0.0503 q 1.95061,-1.761839 2.56726,-1.761839 h 0.0503 q 0.0881,0.05034 0.20136,0.05034 0.55372,-0.402706 0.55372,-0.453045 -0.10068,0 -0.15102,-0.302029 -3.0958,2.013531 -3.22165,2.013531 z m 2.06387,-0.553721 -0.0503,-0.100677 v -0.05034 l 0.10068,-0.151015 h -0.0503 q -1.47239,1.006766 -2.16454,1.862516 -0.0503,0.08809 -0.0503,0.251692 v 0.201353 q 1.66116,-1.497564 2.01353,-1.912855 l 0.25169,0.05034 q 0,-0.138431 0.50338,-0.201353 0.20136,0.07551 0.20136,0.302029 h 0.0503 q 0.88092,-0.654397 0.95643,-0.654397 -0.30203,-0.364953 -0.30203,-0.453045 h -0.0503 q -1.20811,0.855751 -1.40947,0.855751 z m 1.91286,-0.251692 q -0.95643,0.755075 -0.95643,0.805413 0.45304,0.453044 0.70474,0.453044 0.41529,0 1.45981,-0.956427 h -0.15102 q 0,0.201353 -1.35913,0.805413 l -0.10068,-0.151015 q 0,-0.06292 1.10744,-0.704736 -0.35237,0 -0.70473,-0.251692 z m -4.22842,2.718267 v 0.60406 l 2.11421,-2.013531 q 0,-0.364953 0.10068,-0.60406 h -0.0503 q -1.91286,1.76184 -1.91286,1.862517 0,0.151014 -0.25169,0.151014 z m -0.45304,-1.45981 v 0.05034 h 0.0503 l 0.0503,-0.201353 q -0.10067,0 -0.10067,0.151014 z m 3.17131,-0.151014 v 0.302029 q 0.0503,0 0.55372,0.553721 0.45304,0.100677 0.6544,0.100677 h 0.20135 q 0.51597,0 1.0571,-0.704736 v -0.05034 q -0.78024,0.553721 -1.0571,0.553721 h -0.20135 q -0.51597,0 -1.20812,-0.755074 z m -3.22165,0.453044 q -0.25169,1.774424 -0.50338,5.084166 0.0503,0 0.30203,-0.352368 v -0.704736 q 0.10067,-2.000946 0.10067,-2.164546 v -0.503382 l 0.15102,-1.258457 v -0.100677 z m 0.50338,2.416237 v 0.30203 h 0.0503 q 0,-0.213938 1.91285,-2.164546 0.10068,-0.163599 0.10068,-0.30203 -2.06387,1.661164 -2.06387,2.164546 z m 1.96319,-1.510148 q 0,0.100677 -1.51014,1.610825 -0.20136,0.390122 -0.40271,0.503383 l -0.10068,-0.05034 v 0.05034 q -0.0503,0.893504 -0.0503,1.45981 v 0.201353 q 0.21394,0.453045 0.90609,1.057104 0,-0.100677 0.15102,-0.100677 l 0.10068,0.05034 q 0.45304,-0.30203 1.25845,-1.057104 -0.10067,-0.339784 -0.10067,-0.553721 -1.38431,1.359133 -1.61083,1.359133 l -0.10068,-0.151015 v -0.151014 q 0,-0.100677 0.15102,-0.100677 0.10068,0.05034 0.15101,0.05034 l 1.3088,-1.359133 v -0.100677 l -0.0503,-0.604059 q -0.40271,0.289445 -1.76184,1.76184 h -0.10068 q -0.10067,0 -0.10067,-0.151015 0.0377,-0.13843 1.76184,-1.812178 0.0503,0 0.15101,-0.201353 v -0.755075 q -1.53531,1.585656 -1.76184,2.114208 h -0.0503 q -0.0755,0 -0.15101,-0.151015 v -0.05034 q 0,-0.13843 1.96319,-2.416237 0,-0.264276 0.0503,-0.453045 z m 0.45305,3.976724 q -0.23911,0.289445 -1.40947,1.208119 0.22652,0.201353 0.25169,0.201353 1.30879,-1.132611 1.30879,-1.208119 -0.0755,-0.201353 -0.15101,-0.201353 z m -3.423,0.654398 v 0.05034 q 0.75507,1.120027 1.56048,1.912855 0.6544,0.352368 1.3088,0.85575 0,-0.41529 0.0503,-0.654397 -1.62341,-1.359134 -2.51692,-2.617591 -0.0755,0 -0.4027,0.453045 z m 5.58754,-0.251692 v 0.05034 h 0.10068 v -0.05034 z m -3.17131,1.157781 q 0,0.06292 0.25169,0.251691 0,-0.100676 0.15102,-0.100676 0.10068,0.05034 0.15101,0.05034 1.35914,-1.057104 1.35914,-1.107442 -0.45305,-0.125846 -0.45305,-0.201353 -0.57889,0.377537 -1.45981,1.107442 z m 0.55372,0.453044 v 0.100677 q 0.0755,0 0.20136,0.100676 h 0.0503 q 0.50338,-0.402706 1.56048,-1.45981 v -0.05034 h -0.0503 q -1.5479,1.271042 -1.76184,1.308795 z m 0.80542,0.553721 h 0.0503 q 0.90608,-0.805412 0.90608,-0.85575 v -0.05034 z m -0.20136,0.100677 q -0.45304,0.314614 -0.45304,0.453044 h 0.0503 q 0.0629,0 0.45304,-0.453044 z"
         id="path20427"
         style="stroke-width:0.486546" />
      <path
         d="m 251.30618,73.634937 q 0.25169,0.07551 0.25169,0.352368 -0.0503,0 -0.0503,0.05034 0.0755,0 0.15102,0.151015 v 0.100677 q 0,0.100676 -0.40271,0.302029 -0.10067,0.566306 -0.10067,0.805413 0,0.74249 0.0503,2.013531 -0.15102,1.132611 -0.20136,4.530445 h 0.55372 q 0.85575,-0.188768 0.85575,-0.352368 0,-1.195534 -0.90609,-1.963193 v -0.05034 q 0.37754,-0.956427 0.85576,-0.956427 1.01935,-0.679567 1.96319,-1.208119 0.39012,0 0.55372,0.956427 l 0.70474,2.114208 q 0.0503,0 0.10067,0.151015 -0.37753,0.541137 -2.3659,1.560487 l -0.20135,0.201353 q 0.35237,0.100676 0.55372,0.100676 0.0126,-0.100676 0.10068,-0.100676 h 0.0503 q 0.13843,0.302029 0.70473,0.302029 h 0.25169 q 0.45305,0.138431 0.45305,0.704736 0.0629,0.780244 0.15101,1.208119 -0.0503,0.100677 -0.0503,0.151015 l 0.10068,0.05034 -0.0503,0.352368 v 0.100677 l 0.10068,-0.05034 h 0.0503 q 0.10067,0.01259 0.10067,0.100677 -0.20135,0.226522 -0.20135,0.251691 v 0.151015 h 0.0503 q 0.46563,-0.402706 0.60406,-0.402706 l 0.0503,0.100677 v 0.05034 l -0.45305,0.402706 v 0.05034 l 0.75508,-0.151014 h 0.0503 q 0.30203,0.125845 0.30203,0.402706 -0.22652,1.258457 -0.60406,1.258457 -0.86833,1.283626 -1.7115,1.963193 h -0.15101 q 0,-0.201353 -0.80541,-0.654398 -1.61083,-0.994181 -1.61083,-1.812178 0,-3.674694 -0.25169,-3.674694 0,-0.07551 -0.30203,-0.30203 -0.27686,0.05034 -0.40271,0.05034 -0.0503,0.755074 -0.0503,1.107442 v 0.402707 q 0,1.170365 0.65439,1.610824 l -0.0503,0.30203 0.0503,0.100677 -0.50338,0.654397 v 0.05034 h 0.10068 v 0.100676 q -0.0252,0.08809 -1.51015,1.45981 -0.70474,-0.352368 -2.31556,-1.711501 -0.15102,0 -0.15102,-0.100677 0.20136,-1.006765 0.35237,-3.070635 0.10068,0 0.10068,-0.503383 0,-0.792828 0.0503,-1.409471 -0.20136,-3.410419 -0.20136,-3.52368 0.10068,-0.805412 0.10068,-1.610825 v -0.201353 q 0,-0.113261 -0.0503,-0.201353 0.15102,-0.44046 0.90609,-0.805413 1.40947,-1.29621 2.86928,-2.013531 z m -2.86928,2.667929 v 0.100677 q 1.73667,-1.510149 1.96319,-1.510149 l 0.0503,0.100677 q -1.88768,1.661163 -2.01353,1.661163 v 0.251691 q 0.54114,-0.541136 2.26522,-1.963193 0,-0.05034 0.0503,-0.402706 -0.91867,0.453045 -2.31556,1.76184 z m 0,0.956427 v 0.251692 q 1.33396,-1.48498 2.06387,-1.661164 l 0.0503,0.100677 q -1.08228,0.755074 -1.91286,1.661163 0,0.151015 -0.20135,0.151015 v 0.503383 q 1.91285,-2.013531 2.21488,-2.013531 v -0.906089 h -0.0503 q -1.33397,0.994181 -2.16455,1.912854 z m -0.6544,-0.85575 0.0503,0.251691 q -0.10068,1.648579 -0.10068,2.214884 0,0.151015 0.20136,3.120974 -0.0503,0.478213 -0.0503,1.057103 v 0.503383 q -0.20135,0.755074 -0.35237,2.818944 0.31462,0 0.35237,-0.503383 0,-0.88092 0.20135,-3.674694 v -0.100677 q -0.15101,-2.982543 -0.15101,-5.134504 v -0.654398 z m 0.6544,2.164546 q 0.0503,0.830581 0.0503,1.258457 h 0.0503 q 1.67374,-1.76184 1.86251,-1.76184 h 0.10068 l 0.15101,0.100676 v -0.402706 l 0.0503,-0.251691 q -0.80541,0.465629 -2.01353,1.812178 h -0.0503 q -0.10067,0 -0.10067,-0.100677 v -0.05034 q 1.03193,-1.220703 2.16454,-1.963193 v -0.251691 q -0.88092,0.692151 -2.11421,1.912854 -0.10067,0 -0.10067,-0.100676 V 78.7191 q 0.54113,-0.654397 2.16454,-2.063869 v -0.151015 h -0.0503 q -0.28945,0.151015 -2.16455,2.06387 z m 4.17808,1.006765 q 0.0126,0.100677 0.10067,0.100677 1.32138,-1.409472 1.61083,-1.409472 v -0.100677 q 0,-0.100676 -0.10068,-0.100676 0,0.06292 -1.61082,1.510148 z m -4.12774,0.654398 v 0.251691 h 0.10067 q 1.05711,-1.15778 2.01354,-2.013531 v -0.251691 q -0.37754,0.08809 -2.11421,2.013531 z m 4.27875,-0.30203 q 0,0.07551 0.15102,0.151015 l 1.56048,-1.359134 -0.0503,-0.251691 h -0.0503 q -0.35237,0.13843 -1.61083,1.45981 z m -0.4027,-0.755074 q 0.0503,0.100676 0.0503,0.151015 h 0.10068 q 0.30203,-0.201353 0.85575,-0.755074 -0.95643,0.604059 -1.00676,0.604059 z m -3.82571,1.610825 q 0.0503,0.755074 0.0503,1.107442 v 0.503383 q 0,0.05034 -0.0503,0.05034 l 0.0503,0.100677 q 0,0.176184 -0.0503,0.453044 v 0.05034 h 0.0503 q 0.12585,-0.490798 1.9632,-2.365899 v -0.251691 q -0.69215,0.666982 -1.81218,2.164546 l -0.15102,-0.100677 q 0.72991,-1.132611 1.9632,-2.416237 v -0.151015 q -0.71732,0.553721 -1.76184,1.912855 h -0.0503 q -0.10068,0 -0.10068,-0.100677 v -0.05034 q 0.67957,-0.969012 1.91286,-2.114208 v -0.151015 q -0.818,0.654398 -1.81218,1.862517 h -0.0503 q -0.10068,0 -0.10068,-0.100677 0.0629,-0.289445 2.01354,-2.164546 V 78.81978 q -0.13843,0 -1.51015,1.45981 -0.40271,0.503383 -0.55372,0.503383 z m 4.42977,-0.402706 q 0.10067,0.327198 0.10067,0.453044 h 0.0503 l 1.56049,-1.359133 -0.10068,-0.503383 q -0.74249,0.528552 -1.61082,1.409472 z m -1.20812,-0.805413 q 0.75507,0.616644 0.75507,1.359134 0.0503,0 0.0503,0.100676 h 0.0503 v -0.05034 q 0,-0.427875 -0.70474,-1.610825 -0.0755,0 -0.15101,0.201353 z m 1.35913,1.610825 v 0.05034 q 0.67957,-0.679566 1.7115,-1.45981 v -0.05034 h -0.0503 q -0.59147,0.364953 -1.66116,1.45981 z m 0.25169,0.151015 h 0.0503 q 1.1452,-0.956427 1.51015,-1.15778 v -0.151015 q -0.85575,0.541136 -1.56049,1.308795 z m 0.50338,-0.05034 h 0.0503 l 1.15778,-0.654398 -0.0503,-0.251691 h -0.0503 q -1.10745,0.85575 -1.10745,0.906089 z m -5.18484,1.912854 -0.15101,-0.100676 -0.0503,0.503383 v 0.151014 h 0.0503 q 0.75507,-1.283626 1.91285,-1.963193 h 0.0503 v -0.704735 q -1.2207,1.145195 -1.76184,2.114207 z m 4.0774,-1.208118 q 0.39012,-0.213938 0.45305,-0.352368 v -0.151015 q -0.0755,0 -0.45305,0.503383 z m -4.17808,2.114207 q -0.10067,-0.05034 -0.15101,-0.05034 v 0.30203 q 0.90609,-1.120027 2.06387,-2.214885 v -0.151014 q -1.61083,1.233287 -1.86252,2.114207 z m -0.20135,0.704736 h 0.10068 q 0.11326,-0.44046 2.01353,-2.214884 v -0.100677 q -1.67375,1.585656 -2.11421,2.315561 z m 4.12774,-2.114208 0.15102,0.60406 q 0.45304,-0.377537 0.45304,-0.402706 -0.45304,0 -0.45304,-0.251692 -0.10068,0.05034 -0.15102,0.05034 z m -1.00677,0.05034 q 0.60406,0.453044 0.60406,1.661163 v 2.315561 q 0,1.006765 1.71151,1.912854 0,0.06292 0.50338,0.352368 h 0.10068 q 0.15101,-0.427875 0.15101,-0.553721 -1.17036,0 -2.26522,-1.359133 l -0.0503,-0.30203 V 84.35699 q 0,-1.610825 -0.6544,-1.610825 z m -3.12097,2.315561 v 0.503382 h 0.0503 q 0.3272,-0.767658 2.01353,-2.416237 v -0.151015 q -1.20812,1.006766 -1.86252,1.963193 0,0.100677 -0.20135,0.100677 z m 4.32909,-1.510149 v 0.201353 q 0.90609,-0.692151 0.90609,-0.755074 h -0.25169 q -0.57889,0.553721 -0.6544,0.553721 z m 1.15778,-0.453044 q -1.10744,0.906089 -1.10744,0.956427 v 0.201353 h 0.0503 q 1.13261,-1.057104 1.25846,-1.057104 v -0.05034 z m -1.10744,1.510148 v 0.352368 q 1.40947,-1.497564 1.76184,-1.610825 0.10068,0.01259 0.10068,0.100677 v 0.05034 q -1.08227,0.868335 -1.86252,1.812178 v 0.30203 q 1.10744,-1.120027 2.01353,-1.912855 v -0.100676 q 0,-0.377538 -0.15101,-0.402707 h -0.25169 q -0.70474,0.553721 -1.61083,1.409472 z m -4.42977,1.409472 h 0.0503 q 1.17037,-1.497564 2.01353,-2.265223 v -0.201353 q -1.15778,1.069689 -1.91285,2.265223 -0.12585,0 -0.15102,0.201353 z m 4.58079,-0.251691 h -0.0503 l -0.10068,-0.05034 v 1.006766 q 0.0378,0.30203 0.15102,0.30203 h 0.0503 q 0.17618,-0.528552 1.91285,-2.265223 -0.0503,-0.100677 -0.0503,-0.151015 -1.32138,1.233288 -1.86251,1.912855 h -0.0503 q -0.10068,0 -0.10068,-0.100677 v -0.05034 q 0.54114,-0.704736 2.01353,-2.114208 v -0.201353 h -0.0503 q -0.15101,0.01258 -1.86251,1.711502 z m -4.37943,0.453044 h -0.10068 l -0.10068,-0.05034 q -0.0503,0.213937 -0.0503,0.352368 l 0.65439,0.453044 q 0.17619,-0.780243 1.51015,-1.862516 v -0.30203 q -0.4908,0.427876 -1.61082,1.862517 l -0.10068,0.05034 h -0.0503 q -0.10068,0 -0.10068,-0.151015 0,-0.113261 0.50339,-0.553721 0.44046,-0.57889 1.30879,-1.560487 v -0.352368 q -0.69215,0.553721 -1.86251,2.114208 z m 5.38619,-0.151015 h 0.0503 q 0,-0.05034 0.90609,-0.906089 v -0.05034 q -0.0629,0 -0.95643,0.956427 z m -4.78213,1.107442 q 0.10067,0 0.70473,0.453045 h 0.0503 q 0,-0.125846 1.00677,-1.057104 l 0.15101,-0.201353 -0.20135,-0.100677 q -1.06969,1.208119 -1.10744,1.208119 h -0.0503 q -0.10068,0 -0.10068,-0.100677 0.57889,-0.71732 1.15778,-1.308795 -0.0503,-0.08809 -0.0503,-0.201353 h -0.0503 l -1.20811,1.258457 h -0.0503 q -0.10068,0 -0.10068,-0.100676 v -0.05034 q 0.76766,-0.855751 1.3088,-1.409472 -0.0503,-0.08809 -0.0503,-0.201353 -1.40947,1.069689 -1.40947,1.812178 z m 4.0774,0.151015 v 0.05034 h 0.0503 q 0.0881,0 1.66117,-1.661163 v -0.251691 q -1.37172,1.208119 -1.7115,1.862516 z m 0.30203,0.201353 q 0,0.08809 0.50338,0.251692 0.15101,0 1.40947,-1.409472 l -0.10068,-0.05034 h -0.10067 l -1.20812,1.258457 q -0.10068,0 -0.10068,-0.100677 v -0.05034 q 0.0629,-0.138431 1.15778,-1.308796 -0.0503,-0.100676 -0.0503,-0.151014 -0.55372,0.490798 -1.51014,1.560486 z m 0.80541,0.352368 h 0.10068 q 0,-0.100676 1.0571,-1.057104 l 0.50338,-0.352368 0.0503,-0.100676 h -0.25169 q -0.0629,0 -1.45981,1.510148 z m 0.35237,1.057104 q 1.63599,-1.887685 1.76184,-2.164546 v -0.05034 q -1.54791,1.522733 -1.76184,2.214884 z m -7.14804,-2.063869 q 1.2207,1.170365 2.06387,1.610825 0,-0.03775 0.10068,-0.352368 -1.84993,-1.359134 -2.06387,-1.359134 -0.10068,0.01259 -0.10068,0.100677 z m 7.0977,1.057104 h 0.10067 v -0.100677 q -0.10067,0.01259 -0.10067,0.100677 z"
         id="path20429"
         style="stroke-width:0.486546" />
      <path
         d="m 268.38344,71.520729 q 0.30203,0 0.30203,0.352368 0,0.151015 -0.65439,0.453045 -0.31462,1.044519 -0.50339,6.896344 1.73667,-1.233288 2.76861,-2.164546 h 0.15101 q 0,0.05034 0.0503,0.05034 0,-0.07551 0.15102,-0.151014 h 0.0503 q 0.33979,0 0.45305,0.553721 0.91867,0.528552 1.35913,1.761839 v 0.90609 q -0.45304,2.718267 -0.45304,4.127738 l -0.85575,1.963193 -1.56049,1.157781 q -0.95643,0.503383 -2.16455,1.45981 h -0.0503 q -0.26428,0 -0.70474,-0.755074 -1.32138,-1.120027 -1.96319,-1.560487 -0.6544,-0.767659 -0.6544,-1.45981 -0.0503,0 -0.0503,-0.704736 v -0.402706 q 0,-0.817997 0.15102,-2.114208 -0.2517,-4.996074 -0.2517,-6.493638 0.30203,-1.082273 1.35914,-1.711502 1.79959,-1.862516 3.07063,-2.164546 z m -3.423,3.271989 v 0.05034 q 1.45981,-1.258457 1.96319,-1.610825 h 0.0503 q 0.10068,0.01259 0.10068,0.100677 v 0.05034 q -0.10068,0.201353 -0.25169,0.201353 v 0.100676 q 0.15101,0 0.15101,0.100677 v 0.05034 q -1.7115,1.560487 -1.7115,1.76184 h 0.0503 q 0.5663,-0.566306 1.91285,-1.711501 V 73.73562 q 0,-0.503383 0.10068,-1.006766 -0.72991,0.490798 -2.3659,2.06387 z m 1.61083,-1.006766 q -1.23329,1.15778 -1.35914,1.15778 v 0.05034 q 0.0126,0.100676 0.10068,0.100676 0,-0.03775 1.30879,-1.308795 z m -1.45981,2.315561 v 0.251691 h 0.0503 q 1.69892,-1.711501 1.9632,-1.711501 v -0.251692 h -0.0503 q -0.90609,0.755075 -1.96319,1.711502 z m 0.0503,0.553721 v 0.251691 h 0.0503 q 1.86252,-1.635994 1.86252,-1.711501 l 0.0503,-0.251692 h -0.0503 q -0.40271,0.264276 -1.86252,1.711502 z m -0.80541,-1.510148 -0.10068,0.352368 v 0.553721 q 0,0.742489 0.0503,1.711501 -0.0503,0.264276 -0.0503,0.503383 0.20136,1.296211 0.20136,2.91962 v 0.654398 q -0.15102,2.17713 -0.15102,2.516914 0.0503,0.591474 0.0503,0.85575 h 0.0503 q 0,-0.100676 0.0503,-0.100676 -0.0503,-0.100677 -0.0503,-0.151015 0.20135,-0.654398 0.20135,-4.631122 0,-3.259403 -0.20135,-5.184842 z m 0.6544,0.100676 v 0.151015 q 0.0755,0 0.15101,-0.151015 v -0.05034 q -0.10067,0.05034 -0.15101,0.05034 z m 0.15101,1.963193 V 77.662 q 1.24588,-1.233288 1.86252,-1.711502 0,-0.03775 0.0503,-0.30203 l -1.86252,1.560487 z m 0.0503,0.855751 v 0.503383 q 1.59824,-1.610825 1.76184,-1.610825 v -0.151015 l 0.0503,-0.503383 q -0.1636,0.02517 -1.81218,1.76184 z m 0.0503,0.855751 v 0.302029 q 1.63599,-1.711501 1.7115,-1.711501 V 77.259293 Z M 270.49765,77.662 q -0.44046,0.440459 -1.81218,1.510148 l 0.35237,0.05034 q 0.86834,-0.805412 1.76184,-1.15778 v -0.05034 Q 270.56057,77.662 270.49765,77.662 Z m -3.62436,0.201353 q 0,0.100676 -1.61082,1.812178 v 0.201353 q 1.44723,-1.547902 1.66116,-1.560487 v -0.352368 l 0.0503,-0.100676 z m 2.3659,1.45981 v 0.05034 q 0,0.113261 0.2517,0.151015 l 1.66116,-1.157781 v -0.05034 q 0,-0.100676 -0.10068,-0.100676 h -0.0503 q -1.2207,0.71732 -1.76184,1.107442 z m 0.35237,0.453044 0.25169,0.30203 q 1.53532,-1.208119 1.7115,-1.208119 h 0.10068 q -0.20135,-0.289445 -0.20135,-0.352368 h -0.10068 q -0.50338,0.402707 -1.76184,1.258457 z m -4.32909,0.553721 v 0.60406 q 1.59824,-1.812178 1.66116,-1.812178 v -0.503383 q -0.98159,0.805412 -1.66116,1.711501 z m 4.63112,0.05034 v 0.151014 q 0.1636,0 0.25169,0.05034 0.60406,-0.327199 1.40947,-1.006766 h 0.0503 q 0.10068,0.01259 0.10068,0.100677 v 0.05034 q -1.1452,1.15778 -1.76184,1.15778 l 0.0503,0.352368 v 0.201353 h 0.0503 q 0.5663,-0.377537 1.86251,-1.510148 v -0.352368 q 0,-0.163599 -0.15101,-0.553721 h -0.0503 q -1.69892,1.245873 -1.81218,1.359134 z m -4.68146,1.661163 q 1.43464,-1.711502 1.66116,-1.711502 h 0.0503 l -0.0503,-0.352368 v -0.201353 l 0.0503,-0.251691 q -1.66116,1.736671 -1.66116,1.963193 -0.0503,0.27686 -0.0503,0.553721 z m 2.31556,-2.164546 V 80.0279 q 0.0503,0 0.40271,-0.05034 1.03193,0 1.20812,1.006766 0.0503,0.201353 0.0503,0.352368 0,0.503383 -0.0503,2.61759 0,0.289446 0.10067,1.510149 h 0.10068 v -0.05034 q 0,-0.868336 0.10068,-2.969959 -0.0881,-2.416237 -0.40271,-2.416237 0,-0.07551 -0.45304,-0.30203 z m 0,0.453044 v 1.308796 q 0.10068,0.352368 0.10068,0.402706 v 1.45981 q 0,1.006766 1.25846,1.812178 h 0.0503 l -0.10067,-1.359134 q 0.0503,-1.573071 0.0503,-2.718267 0,-0.956427 -1.10745,-0.956427 z m 2.46658,1.359134 q 0.0503,0.03775 0.0503,0.453044 1.28362,-0.843166 1.81217,-1.510148 l 0.0503,-0.30203 h -0.0503 q -1.52273,1.359134 -1.81217,1.359134 z m -4.78214,0.654398 v 0.805412 l -0.0503,0.352368 q 0.57889,-0.843166 1.45981,-1.76184 h 0.10068 q 0.10068,0.01259 0.10068,0.100677 v 0.05034 l -0.40271,0.453045 v 0.100676 h 0.0503 l 0.20135,-0.151015 h 0.10068 q 0.10067,0.01259 0.10067,0.100677 v 0.05034 q -0.98159,0.931258 -1.66116,1.661163 h -0.0503 v 0.05034 l 0.25169,0.05034 q 0.60406,-0.755074 1.20812,-1.308795 h 0.10068 q 0.10068,0.01258 0.10068,0.100676 -0.0378,0.1636 -1.40948,1.510149 l 0.0503,0.100676 v 0.100677 l -0.10067,0.151015 h 0.0503 q 0.60406,-0.566306 1.56049,-1.610825 v -0.805413 q 0,-0.05034 0.0503,-0.05034 -0.10068,-0.251692 -0.15102,-0.251692 l 0.0503,-0.503382 v -1.107443 q -1.58565,1.812179 -1.66116,1.812179 z m 4.83248,0.151014 v 0.402707 q 1.67374,-1.094858 1.7115,-1.711502 -1.68633,1.308795 -1.7115,1.308795 z m 0,0.654398 v 0.453045 l 1.51014,-1.208119 0.0503,-0.30203 v -0.100676 q -1.18295,1.15778 -1.56048,1.15778 z m -4.17808,-0.151015 v 0.05034 q 0.0378,0 0.40271,-0.402706 v -0.05034 h -0.0503 q -0.0378,0 -0.35237,0.402706 z m 4.12774,0.906089 v 0.251692 l -0.0503,0.251691 h 0.0503 q 0.55372,-0.289445 1.35913,-1.208119 h 0.15102 v -0.402706 h -0.0503 q -1.23329,1.107442 -1.45981,1.107442 z m -0.0503,0.805413 v 0.402706 q 0.4908,-0.30203 1.3088,-1.006766 h 0.0503 l 0.15102,0.100677 0.0503,-0.704736 q -1.24588,1.195534 -1.56049,1.208119 z m -4.78214,-1.157781 v 0.201353 q 0.10068,0 0.10068,-0.100676 0,-0.100677 -0.10068,-0.100677 z m 0.30203,1.76184 h 0.0503 q 1.33397,-1.308795 1.56049,-1.308795 -0.0503,-0.201353 -0.0503,-0.352368 -0.74249,0.666982 -1.56049,1.661163 z m 0.20136,0.503383 0.20135,0.151015 q 0.62923,-0.60406 0.90609,-1.107442 0.50338,-0.239107 0.50338,-0.352368 -0.10068,0 -0.15101,-0.30203 -1.45981,1.346549 -1.45981,1.610825 z m 4.27875,-0.402706 v 0.302029 h 0.0503 q 0.17618,-0.213937 0.90609,-0.704736 0.45304,-0.390121 0.45304,-0.604059 h -0.0503 q -1.15778,1.006766 -1.35913,1.006766 z m -3.57402,0.402706 v 0.05034 q 0.51597,-0.465629 1.15778,-0.906089 -0.0503,-0.100676 -0.0503,-0.151015 h -0.0503 q -0.45305,0.339784 -1.05711,1.006766 z m 1.35914,-0.60406 -0.90609,1.006766 h 0.0503 l 1.10745,-0.855751 z m -3.27199,0.352368 v 0.05034 q 0.33978,0.755074 2.06387,1.963193 0,0.05034 0.70473,0.755074 L 267.276,88.23304 V 88.1827 q -2.08904,-2.051285 -2.81894,-2.617591 z m 3.02029,2.969959 q 1.29622,-0.994181 1.91286,-1.258457 0.30203,-0.314614 1.61082,-1.157781 0.11327,-0.188768 0.20136,-0.553721 -0.60406,0.553721 -2.76861,1.963193 -0.95643,0.805413 -0.95643,0.956428 z m 0.70474,-2.91962 q 0,0.151015 -0.6544,0.805412 h 0.0503 q 0.85575,-0.654397 0.85575,-0.704736 -0.0755,0 -0.20135,-0.100676 z m -1.56049,0.352368 -0.4027,0.402706 0.10067,0.05034 0.35237,-0.453044 z m 2.21489,0 q -0.0503,0.176184 -1.40947,1.45981 0.0126,0.100676 0.10067,0.100676 0.59148,-0.553721 1.86252,-1.409472 -0.0881,0 -0.55372,-0.151014 z m -1.45981,0.151014 -0.70474,0.60406 v 0.05034 h 0.0503 q 0.44046,-0.327199 0.70474,-0.654398 z m -0.30203,1.006766 0.15101,0.100677 q 0.96901,-0.843167 1.00677,-0.956428 -0.0629,0 -1.15778,0.855751 z"
         id="path20431"
         style="stroke-width:0.486546" />
      <path
         d="m 278.4511,77.22154 q 0.2391,0.100676 0.85575,1.208118 0.8935,1.107442 1.40947,1.107442 0.30203,0.226523 0.30203,0.503383 -0.1636,5.184843 -0.30203,5.184843 -0.0503,0 -0.0503,0.05034 0.10068,0.1636 0.10068,0.251692 -0.10068,0.490798 -2.56725,2.516914 -0.85575,1.006765 -0.90609,1.006765 -0.46563,-0.01258 -1.05711,-0.553721 -0.67956,-0.679567 -1.91285,-1.45981 -0.80541,-0.239107 -0.80541,-0.604059 V 86.03074 q 0,-0.566305 0.10067,-2.063869 l -0.15101,-2.466576 0.10067,-0.201353 -0.0503,-0.201353 q 0.0126,-0.13843 2.7686,-2.265222 1.59824,-1.434641 1.76184,-1.510149 0.35237,-0.100676 0.40271,-0.100676 z m -0.25169,0.704736 q -1.44723,1.359133 -3.72504,3.120973 -0.0503,0.264276 -0.0503,0.30203 0.83058,-0.729906 1.96319,-1.610825 0,-0.1636 0.25169,-0.30203 h 0.0503 l 0.25169,0.05034 q 1.52273,-1.15778 1.56049,-1.15778 v -0.05034 q -0.21394,-0.352367 -0.30203,-0.352367 z m -1.00677,1.711501 0.10068,0.05034 h 0.0503 q 0.26427,0 1.40947,-1.006765 0,-0.100677 -0.10068,-0.100677 h -0.0503 q -1.28362,0.855751 -1.40947,1.057104 z m 0.40271,0.30203 q 0.60406,0.453044 0.95642,1.006765 0.94385,-0.767658 1.45981,-1.006765 v -0.05034 q -0.0629,0 -0.30203,-0.151014 -0.0377,0 -1.15778,0.755074 h -0.15101 q -0.10068,0 -0.10068,-0.100677 0.0503,-0.13843 1.20812,-0.805412 0,-0.07551 -0.30203,-0.30203 -0.91867,0.755074 -1.15778,0.755074 l -0.0503,-0.100676 v -0.05034 l 1.05711,-0.805412 q 0,-0.07551 -0.15102,-0.151015 -0.0755,0 -1.30879,1.006766 z m 2.56725,0.05034 q 0,0.100677 -1.40947,1.107442 v 0.151015 q 0.10067,0.125846 0.10067,0.251691 1.3088,-1.006765 1.40948,-1.006765 l 0.0503,0.100676 v 0.100677 q -1.35913,1.107442 -1.45981,1.107442 v 0.553721 l -0.0503,0.100677 h 0.0503 q 1.51015,-1.18295 1.51015,-1.560487 0.0503,-0.289445 0.0503,-0.805412 z m -5.13451,1.15778 q 0.0503,0.100677 0.0503,0.151015 0.94385,-0.918673 1.15778,-1.057104 h 0.10068 q 0.10068,0.01258 0.10068,0.100677 l -1.9632,1.912855 v 0.05034 q 1.74926,-1.661163 1.91286,-1.661163 h 0.0503 l 0.0503,0.100676 v 0.05034 q -0.81799,0.717321 -1.96319,1.862517 v 0.352368 h 0.0503 q 0.91867,-0.830582 1.81218,-1.711502 0.10067,0.01259 0.10067,0.100677 v 0.100676 q -0.70473,0.767659 -1.91285,1.862517 v 0.402706 q 1.37172,-1.434641 1.66116,-1.610825 0.0755,0 0.15102,0.151015 -1.81218,1.686332 -1.81218,2.013531 v 0.30203 h 0.0503 q 1.81218,-1.812178 1.96319,-1.812178 v -2.617591 q 0,-0.07551 -0.15101,-0.151015 -0.37754,0.239107 -1.40948,1.107442 z m 2.16455,-0.704736 v 0.453045 q 0,0.07551 0.70474,0.604059 h 0.0503 q 0,-0.07551 0.10068,-0.201353 -0.4027,-0.591475 -0.80541,-0.855751 z m 0,0.855751 v 2.416238 q 0,0.239106 -0.15101,0.85575 0.0503,0 0.70473,0.704736 h 0.0503 V 84.52059 q -0.10068,-2.315561 -0.10068,-2.567252 v -0.251692 q 0,-0.07551 -0.45304,-0.402706 z m -2.51691,0.151015 -0.25169,0.30203 V 81.903 h 0.0503 q 0.0755,0 0.35237,-0.352368 z m 3.52368,0 -0.2517,0.503383 q 0,0.125846 0.10068,2.718267 v 0.05034 l -0.0503,0.251692 q 0.0755,0 0.20136,-0.251692 v -2.91962 l 0.0503,-0.30203 v -0.05034 z m 0.65439,1.359134 v 0.201353 q 1.51015,-1.057104 1.51015,-1.409472 v -0.151015 q -0.50338,0.503383 -1.51015,1.359134 z m -5.1345,-1.308796 q 0.10068,1.170365 0.15101,2.567253 -0.10067,1.283626 -0.10067,2.063869 v 0.05034 h 0.0503 q 0.15101,-0.05034 0.15101,-0.302029 v -1.610825 q 0,-0.767659 -0.15101,-2.768606 z m 5.1345,1.812178 v 0.402707 l -0.0503,0.100676 h 0.10067 q 0,-0.05034 1.40947,-1.409472 v -0.201353 h -0.0503 q -1.3088,1.107442 -1.40948,1.107442 z m -0.0503,1.258457 q 1.51014,-1.120026 1.51014,-1.560486 v -0.201353 q -1.45981,1.233287 -1.45981,1.45981 z m -4.22842,0.453045 v 0.402706 q 1.78701,-1.661163 1.96319,-1.661163 0,0.05034 0.0503,0.05034 v -0.704736 q -0.0755,0 -2.01353,1.912855 z m 4.22842,-0.100677 v 0.251692 h 0.0503 q 1.04452,-1.057104 1.40948,-1.057104 v -0.453045 z m -4.22842,0.906089 v 0.100677 q 0,0.06292 0.30203,0.251691 1.56049,-1.45981 1.56049,-1.610825 0,-0.27686 0.10067,-0.503382 h -0.0503 q -1.20811,0.994181 -1.91285,1.761839 z m 4.17808,-0.201353 q 0.0503,0.100677 0.0503,0.151015 -0.0503,0 -0.0503,0.05034 h 0.0503 q 1.2207,-1.006765 1.40947,-1.258457 v -0.201353 q -1.32138,1.057104 -1.45981,1.258457 z m -2.21489,-0.704736 q -1.32138,1.258457 -1.40947,1.409472 0,0.07551 0.20135,0.151015 0.39013,-0.503383 1.05711,-1.107442 h 0.0503 q 0.10067,0.01258 0.10067,0.100676 v 0.05034 q -0.59147,0.604059 -1.00676,1.107442 0.22652,0.201353 0.25169,0.201353 0.13843,-0.239107 1.30879,-1.359134 z m 1.45981,0.251692 q 0.0503,0.100676 0.0503,0.151015 l -0.0503,0.251691 0.15102,0.100677 v -0.402707 q 0,-0.100676 -0.10068,-0.100676 z m 2.41624,0.251691 q -2.18971,1.875101 -2.51691,2.365899 -0.20136,0.390122 -0.25169,0.453045 v 0.05034 q 0.85575,-0.931258 2.46657,-2.214884 0.0503,-0.13843 0.40271,-0.60406 z m -3.17131,0.251692 -1.25846,1.308795 0.15102,0.100676 q 0.0629,-0.06292 1.20812,-1.308795 0,-0.100676 -0.10068,-0.100676 z m -0.90609,1.560486 v 0.05034 q 0.30203,0.151015 0.35237,0.151015 l 1.00676,-1.006765 -0.0503,-0.100677 q 0.0503,-0.08809 0.0503,-0.201353 0,-0.07551 -0.15101,-0.151015 -0.0755,0.01259 -1.20812,1.258457 z m -2.51691,-0.704736 v 0.05034 q 0.1636,0 1.0571,0.453044 v -0.05034 q 0,-0.05034 -0.80541,-0.654398 -0.22653,0.100677 -0.25169,0.201354 z m 3.87604,0.30203 h 0.0503 q 0.0629,0 0.40271,-0.402706 v -0.05034 q -0.0629,0 -0.45305,0.453045 z m -0.80541,0.755074 q 0,0.07551 0.30203,0.251692 0,-0.08809 0.35237,-0.654398 -0.0503,-0.100677 -0.0503,-0.151015 0.0503,0 0.0503,-0.05034 h -0.0503 q -0.0755,0 -0.60406,0.604059 z m -1.86252,-0.352368 q 0.67957,0.390122 1.56049,1.208119 0.0252,0 0.30203,0.251691 h 0.20135 v -0.151015 l -1.91285,-1.409471 h -0.0503 q -0.10068,0.01258 -0.10068,0.100676 z"
         id="path20433"
         style="stroke-width:0.486546" />
      <path
         d="m 285.23418,78.303813 q 1.10745,0.27686 2.66793,1.585655 v 0.100677 l -0.25169,0.264276 v 0.151015 q 0,0.327199 0.0503,0.994181 h 0.0503 q 0.8935,-1.296211 1.00676,-2.365899 l 0.20136,-0.151015 0.10067,-0.01259 0.6544,0.528552 q 0.10068,-0.239107 0.20135,-0.264276 0.0755,0 0.15102,0.13843 l -0.15102,0.213938 v 0.05034 q 0.0755,0 0.20136,0.08809 0.37753,-0.01258 0.60406,-0.679566 l 0.10067,-0.06292 h 0.15102 q 0.25169,-0.01259 0.25169,1.094857 0,0.364953 -0.70474,1.195535 -0.41529,0.817997 -1.30879,0.868335 l -1.3088,0.666982 q 0.57889,3.52368 1.61083,4.140324 0.37754,0.239106 1.20812,0.302029 l 0.10067,0.13843 v 0.100677 q 0,0.163599 -0.50338,0.276861 -0.66698,0.541136 -1.91285,0.604059 -1.33397,0.06292 -2.31556,-1.107442 0,0.692151 -1.45982,1.082273 l -0.60405,0.02517 q -0.9816,0.05034 -2.01354,-0.251691 -0.25169,-0.239107 -0.25169,-0.692152 l 0.75508,-0.44046 q 0.83058,-0.855751 1.56048,-2.189715 0.3272,-0.402706 0.95643,-0.843166 -0.4908,-2.353315 -1.86252,-2.277807 0,-0.151015 -0.80541,-0.1636 h -0.20135 q -0.10068,0.01259 -0.10068,-0.08809 v -0.151014 q 0,-0.729906 0.60406,-1.031935 1.45981,-1.132611 2.56725,-1.837347 z m -1.76184,2.240053 h 0.15102 q 0,-0.08809 1.76184,-1.698917 l -0.10068,0.01259 q -0.46563,0.27686 -1.81218,1.686332 z m 2.11421,-1.560487 q -1.69891,1.522733 -1.7115,1.598241 v 0.05034 l 0.20135,-0.01259 q 0.69216,-0.729905 1.76184,-1.547902 -0.0881,0.01259 -0.25169,-0.08809 z m -1.25845,1.724086 q 1.20811,0.213938 1.20811,0.956428 0.70474,-0.88092 1.56049,-1.787009 -0.0503,0 -0.30203,-0.188769 -1.34655,1.32138 -1.51015,1.333965 l -0.0503,-0.100677 v -0.05034 l 1.35914,-1.32138 q 0,-0.100677 -0.10068,-0.100677 h -0.0503 q -0.51596,0.402707 -1.30879,1.170365 l -0.10068,0.01259 q -0.10068,0 -0.10068,-0.100677 v -0.05034 q 0.33979,-0.239107 1.3088,-1.220703 -0.0503,0 -0.15101,-0.05034 -0.79283,0.465629 -1.76184,1.497563 z m 4.78213,-1.082273 q 0,0.100677 -0.10067,0.503383 0.0755,0 0.35236,-0.364952 v -0.05034 q -0.0755,0 -0.20135,-0.08809 z m -5.99025,0.843167 0.10067,-0.01259 q 0.0755,0 0.35237,-0.364952 h -0.0503 q -0.4027,0.339783 -0.4027,0.377537 z m 6.04059,0.767658 q 0.84317,-0.03775 1.56049,-1.182949 v -0.151015 q -0.21394,0.276861 -1.35914,1.120027 z m -0.50338,-0.27686 q 0,-0.05034 -0.0503,-0.05034 0,0.100676 -0.40271,0.616643 h 0.0503 l 0.35237,-0.163599 -0.0503,-0.100676 q 1.17037,-1.107443 1.25846,-1.120027 v -0.100677 h -0.0503 q -0.91867,0.906089 -1.10744,0.918674 z m -3.0203,0.893504 -0.10068,-0.03775 v 0.05034 q 0.0503,0.251691 0.0503,0.490798 0.39012,-0.641813 1.56049,-1.787009 v -0.352368 l -0.0503,0.01259 q -0.62923,0.654397 -1.45981,1.623409 z m 4.37943,-1.661163 -0.0503,0.100677 h 0.0503 l 0.0503,-0.113261 z m -1.0571,0.251691 -0.15102,0.201354 h 0.0503 l 0.15102,-0.213938 z m -6.59432,0.415291 q -0.10067,0.201353 -0.10067,0.30203 h 0.0503 q 0.76766,-0.03775 2.06387,0.553721 0.70474,1.145196 0.70474,1.522733 h 0.0503 v -0.05034 q 0,-1.862517 -0.40271,-1.837347 -0.94384,-0.314615 -2.31556,-0.44046 0,-0.05034 -0.0503,-0.05034 z m 3.27199,2.051285 v 0.30203 h 0.0503 q 0.33978,-0.641813 1.51015,-2.0387 l -0.0503,-0.251692 q -1.24587,1.069689 -1.51015,1.988362 z m 0,0.805413 q 0.10068,0.01258 0.10068,0.100676 -0.0503,0.276861 -0.0503,0.402706 h 0.10068 q 0.26427,-0.515967 1.45981,-2.491744 -0.0503,-0.08809 -0.0503,-0.151015 -1.13261,1.245872 -1.56049,2.139377 z m 2.21488,-1.258457 h 0.0503 q 1.19554,-0.60406 2.16455,-0.969012 v -0.05034 l -0.0503,0.01259 q -0.22652,0.151015 -1.51015,0.465629 -0.50338,0.30203 -0.6544,0.541137 z m -0.60405,-0.327199 -1.45981,2.491745 h -0.0503 v 0.201353 l 0.10067,-0.01259 1.40948,-1.925439 h 0.0503 q 0.10068,0 0.10068,0.151015 -0.56631,0.830581 -1.56049,2.126792 v 0.100677 q 0.15102,0.163599 0.15102,0.453044 h 0.0503 q 0.2391,-0.239107 1.15778,-1.673748 0.10067,0.01259 0.10067,0.100677 0,0.251691 -1.10744,1.812178 l 0.20135,0.188769 q 0.45305,-0.830582 1.20812,-1.610825 h 0.0503 q 0.10068,0 0.10068,0.08809 v 0.05034 q -0.72991,0.817997 -1.20812,1.623409 0,0.07551 0.15101,0.138431 h 0.0503 l 1.10744,-1.510149 q -0.35236,-1.283626 -0.55372,-2.793774 z m -3.32233,3.737617 v 0.05034 l 1.30879,-1.220703 v -0.251691 q -0.93125,0.654397 -1.30879,1.422056 z m -0.45305,1.01935 q -0.10067,0.01259 -0.10067,-0.188768 -0.0629,0 -0.55372,0.57889 l 0.4027,-0.02517 q 0.26428,-0.01259 2.11421,-1.963193 l -0.0503,-0.289445 q -1.53531,1.233288 -1.76184,1.887685 z m 4.42977,-1.661163 q -0.95642,1.308795 -0.95642,1.346549 0,0.07551 0.25169,0.188769 0.85575,-1.094858 0.85575,-1.245873 -0.0503,-0.30203 -0.15102,-0.289445 z m -4.22841,2.063869 0.20135,-0.01258 q 0.59148,-0.465629 1.35913,-1.32138 0.10068,-0.01258 0.10068,0.13843 0.11326,0 0.15102,-0.251691 l -0.0503,-0.251691 h -0.0503 q -0.0755,0.01258 -1.7115,1.698916 z m 3.72503,-0.377537 0.10068,0.03775 q 0,-0.06292 0.75507,-0.943843 -0.0503,-0.08809 -0.0503,-0.201353 -0.44046,0.515968 -0.80541,1.107442 z m -1.56049,-0.541136 q 0,0.541136 -1.10744,1.32138 -0.28944,0.01258 -0.55372,0.125845 l -0.30203,-0.03775 -0.15101,0.01258 -0.20136,0.151015 q 0,-0.213938 -1.45981,-0.226522 0,0.264276 2.06387,0.352368 1.81218,-0.08809 1.81218,-1.346549 -0.0503,-0.201353 -0.0503,-0.352368 z m -0.80541,0.100676 q 0,0.05034 -0.75507,0.780244 h 0.10067 q 0.70474,-0.666982 0.70474,-0.792828 z m 3.32233,-0.113261 q 0,0.1636 -0.30203,0.213938 l -0.35237,0.465629 q 0.25169,0.13843 0.40271,0.13843 0.50338,-0.541136 0.50338,-0.57889 -0.15102,-0.163599 -0.15102,-0.251691 z m -2.16455,0.352368 v 0.05034 q 0.67957,1.333964 2.21489,1.258457 l 0.15101,-0.01259 q 0.25169,-0.01259 0.75507,-0.08809 v -0.05034 q -1.53531,0.07551 -3.12097,-1.157781 z m 2.51692,0.08809 -0.35237,0.465629 v 0.05034 q 0.0503,0 0.4027,-0.125846 0.21394,0.201353 0.55372,0.176184 h 0.0503 v -0.05034 q -0.20135,0.01258 -0.65439,-0.515968 z"
         id="path20435"
         style="stroke-width:0.486546" />
    </g>
    <g
       id="g10926"
       transform="matrix(0.54379896,0,0,0.54379896,111.97046,55.671344)"
       style="stroke-width:1.83891">
      <ellipse
         style="font-variation-settings:normal;opacity:1;vector-effect:none;fill:#5599ff;fill-opacity:1;fill-rule:evenodd;stroke:#000000;stroke-width:0.487311;stroke-linecap:butt;stroke-linejoin:miter;stroke-miterlimit:4;stroke-dasharray:none;stroke-dashoffset:0;stroke-opacity:1;stop-color:#000000;stop-opacity:1"
         id="path4523"
         cx="219.71391"
         cy="143.89777"
         rx="4.3885722"
         ry="6.7708974" />
      <ellipse
         style="font-variation-settings:normal;opacity:1;vector-effect:none;fill:#000000;fill-opacity:1;fill-rule:evenodd;stroke:none;stroke-width:0.487311;stroke-linecap:butt;stroke-linejoin:miter;stroke-miterlimit:4;stroke-dasharray:none;stroke-dashoffset:0;stroke-opacity:1;stop-color:#000000;stop-opacity:1"
         id="ellipse8743"
         cx="220.62852"
         cy="143.89777"
         rx="3.473958"
         ry="6.7290139" />
    </g>
    <g
       id="g10932"
       transform="matrix(0.54379896,0,0,0.54379896,123.78286,58.518273)"
       style="stroke-width:1.83891">
      <ellipse
         style="font-variation-settings:normal;opacity:1;vector-effect:none;fill:#ccff00;fill-opacity:1;fill-rule:evenodd;stroke:#000000;stroke-width:0.487311;stroke-linecap:butt;stroke-linejoin:miter;stroke-miterlimit:4;stroke-dasharray:none;stroke-dashoffset:0;stroke-opacity:1;stop-color:#000000;stop-opacity:1"
         id="ellipse10928"
         cx="219.71391"
         cy="143.89777"
         rx="4.3885722"
         ry="6.7708974" />
      <ellipse
         style="font-variation-settings:normal;opacity:1;vector-effect:none;fill:#000000;fill-opacity:1;fill-rule:evenodd;stroke:none;stroke-width:0.487311;stroke-linecap:butt;stroke-linejoin:miter;stroke-miterlimit:4;stroke-dasharray:none;stroke-dashoffset:0;stroke-opacity:1;stop-color:#000000;stop-opacity:1"
         id="ellipse10930"
         cx="220.62852"
         cy="143.89777"
         rx="3.473958"
         ry="6.7290139" />
    </g>
    <g
       id="g11664"
       transform="matrix(-0.51005733,-0.18857049,0.18857049,-0.51005733,345.04203,246.34367)"
       style="stroke-width:1.83891">
      <ellipse
         style="font-variation-settings:normal;opacity:1;vector-effect:none;fill:#ff7f2a;fill-opacity:1;fill-rule:evenodd;stroke:#000000;stroke-width:0.487311;stroke-linecap:butt;stroke-linejoin:miter;stroke-miterlimit:4;stroke-dasharray:none;stroke-dashoffset:0;stroke-opacity:1;stop-color:#000000;stop-opacity:1"
         id="ellipse11660"
         cx="219.71391"
         cy="143.89777"
         rx="4.3885722"
         ry="6.7708974" />
      <ellipse
         style="font-variation-settings:normal;opacity:1;vector-effect:none;fill:#000000;fill-opacity:1;fill-rule:evenodd;stroke:none;stroke-width:0.487311;stroke-linecap:butt;stroke-linejoin:miter;stroke-miterlimit:4;stroke-dasharray:none;stroke-dashoffset:0;stroke-opacity:1;stop-color:#000000;stop-opacity:1"
         id="ellipse11662"
         cx="220.53178"
         cy="143.75598"
         rx="3.473958"
         ry="6.7290139" />
    </g>
    <text
       xml:space="preserve"
       style="font-size:5.35921px;line-height:1.15;font-family:sans-serif;text-align:end;text-decoration:none;text-decoration-line:none;text-decoration-color:#000000;letter-spacing:0px;word-spacing:0px;text-anchor:end;fill:#000000;stroke-width:0.264583;paint-order:markers stroke fill;stop-color:#000000"
       x="221.81247"
       y="132.46309"
       id="text14960"><tspan
         sodipodi:role="line"
         id="tspan14958"
         style="text-align:end;text-anchor:end;stroke-width:0.264583"
         x="221.81247"
         y="132.46309">Input A</tspan></text>
    <text
       xml:space="preserve"
       style="font-size:5.35921px;line-height:1.15;font-family:sans-serif;text-align:end;text-decoration:none;text-decoration-line:none;text-decoration-color:#000000;letter-spacing:0px;word-spacing:0px;text-anchor:end;fill:#000000;stroke-width:0.264583;paint-order:markers stroke fill;stop-color:#000000"
       x="221.86909"
       y="142.8056"
       id="text14964"><tspan
         sodipodi:role="line"
         id="tspan14962"
         style="text-align:end;text-anchor:end;stroke-width:0.264583"
         x="221.86909"
         y="142.8056">Input B</tspan></text>
    <path
       id="path16354"
       style="color:#000000;fill:#000000;stroke:#ffffff;stroke-width:0.793751;stroke-linejoin:round;paint-order:markers stroke fill"
       d="m 230.81523,132.23855 a 0.21582021,0.21582021 0 0 0 -0.14336,0.0351 0.21582021,0.21582021 0 0 0 -0.0596,0.29988 l 0.72775,1.08911 -8.42011,-1.6747 -0.0841,0.42307 8.42011,1.6747 -1.08928,0.72858 a 0.21582021,0.21582021 0 0 0 -0.0595,0.29905 0.21582021,0.21582021 0 0 0 0.29904,0.0595 l 1.70212,-1.13761 -1.13732,-1.70208 a 0.21582021,0.21582021 0 0 0 -0.15569,-0.0946 z" />
    <path
       id="path16372"
       style="color:#000000;fill:#000000;stroke:#ffffff;stroke-width:0.793751;stroke-linejoin:round;paint-order:markers stroke fill"
       d="m 241.2898,136.04577 a 0.21582021,0.21582021 0 0 0 -0.12016,0.0863 0.21582021,0.21582021 0 0 0 0.0564,0.30049 l 1.08132,0.7393 -19.94273,3.7465 0.0798,0.42477 19.94357,-3.74666 -0.74012,1.08147 a 0.21582021,0.21582021 0 0 0 0.0563,0.29966 0.21582021,0.21582021 0 0 0 0.30076,-0.0565 l 1.15531,-1.69016 -1.68988,-1.15537 a 0.21582021,0.21582021 0 0 0 -0.1806,-0.0299 z" />
    <text
       xml:space="preserve"
       style="font-size:5.35921px;line-height:1.15;font-family:sans-serif;text-align:start;text-decoration:none;text-decoration-line:none;text-decoration-color:#000000;letter-spacing:0px;word-spacing:0px;text-anchor:start;fill:#000000;stroke-width:0.264583;paint-order:markers stroke fill;stop-color:#000000"
       x="269.30252"
       y="136.4433"
       id="text19657"><tspan
         sodipodi:role="line"
         id="tspan19655"
         style="text-align:start;text-anchor:start;stroke-width:0.264583"
         x="269.30252"
         y="136.4433">Output</tspan></text>
    <path
       id="path20022"
       style="color:#000000;fill:#000000;stroke:#ffffff;stroke-width:0.793751;stroke-linejoin:round;paint-order:markers stroke fill"
       d="m 267.17172,131.73991 a 0.21582021,0.21582021 0 0 0 -0.14337,0.0351 0.21582021,0.21582021 0 0 0 -0.0596,0.29987 l 0.72775,1.08911 -8.42011,-1.6747 -0.0841,0.42307 8.4201,1.6747 -1.08928,0.72859 a 0.21582021,0.21582021 0 0 0 -0.0595,0.29904 0.21582021,0.21582021 0 0 0 0.29905,0.0595 l 1.70212,-1.13761 -1.13733,-1.70207 a 0.21582021,0.21582021 0 0 0 -0.15568,-0.0946 z" />
  </g>
</svg>
